<svg width="295.047705078125px" height="89.6px" xmlns="http://www.w3.org/2000/svg" viewBox="102.47614746093751 30.200000000000003 295.047705078125 89.6" style="background: rgba(0, 0, 0, 0);" preserveAspectRatio="xMidYMid"><defs><linearGradient id="editing-outline-gradient" x1="-0.41354545764260087" x2="1.4135454576426008" y1="0.09326335692419985" y2="0.9067366430758002"><stop offset="0" stop-color="#ffffff"></stop><stop offset="1" stop-color="#ffffff"></stop></linearGradient><filter id="editing-outline" x="-100%" y="-100%" width="300%" height="300%"><feMorphology in="SourceGraphic" operator="dilate" radius="2" result="outline"></feMorphology><feComposite operator="out" in="outline" in2="SourceAlpha"></feComposite></filter></defs><g filter="url(#editing-outline)"><g transform="translate(150.27494966983795, 95.2400016784668)"><path d="M21.25-3.01L21.25-3.01L21.25-3.01Q19.40-1.14 16.87-0.13L16.87-0.13L16.87-0.13Q14.34 0.88 11.84 0.88L11.84 0.88L11.84 0.88Q9.33 0.88 8.45 0.44L8.45 0.44L7.08 7.92L-1.85 8.80L4.22-22.44L11.40-23.19L10.82-20.15L10.82-20.15Q12.67-23.28 16.50-23.28L16.50-23.28L16.50-23.28Q20.81-23.28 23.10-20.50L23.10-20.50L23.10-20.50Q25.12-18.00 25.12-14.17L25.12-14.17L25.12-14.17Q25.12-10.34 24.11-7.61L24.11-7.61L24.11-7.61Q23.10-4.88 21.25-3.01ZM11.31-15.36L8.98-2.46L8.98-2.46Q9.90-1.67 11.04-1.67L11.04-1.67L11.04-1.67Q12.19-1.67 12.85-2.11L12.85-2.11L12.85-2.11Q13.51-2.55 13.99-3.43L13.99-3.43L13.99-3.43Q15.31-5.81 16.37-13.02L16.37-13.02L16.37-13.02Q16.68-15.14 16.68-17.20L16.68-17.20L16.68-17.20Q16.68-19.27 16.21-19.93L16.21-19.93L16.21-19.93Q15.75-20.59 14.87-20.59L14.87-20.59L14.87-20.59Q12.19-20.59 11.31-15.36L11.31-15.36ZM37.36 0.88L37.36 0.88L37.36 0.88Q27.68 0.88 27.68-8.23L27.68-8.23L27.68-8.23Q27.68-14.70 31.24-18.88L31.24-18.88L31.24-18.88Q35.02-23.32 41.58-23.32L41.58-23.32L41.58-23.32Q46.33-23.32 48.75-21.12L48.75-21.12L48.75-21.12Q51.17-18.92 51.17-14.30L51.17-14.30L51.17-14.30Q51.17-7.26 47.39-3.17L47.39-3.17L47.39-3.17Q43.69 0.88 37.36 0.88ZM38.50-18.26L38.50-18.26L38.50-18.26Q37.97-17.07 37.55-15.29L37.55-15.29L37.55-15.29Q37.14-13.51 36.61-10.69L36.61-10.69L36.61-10.69Q36.08-7.88 36.08-4.40L36.08-4.40L36.08-4.40Q36.08-3.26 36.45-2.51L36.45-2.51L36.45-2.51Q36.83-1.76 37.84-1.76L37.84-1.76L37.84-1.76Q38.85-1.76 39.49-2.24L39.49-2.24L39.49-2.24Q40.13-2.73 40.61-3.87L40.61-3.87L40.61-3.87Q41.49-5.90 42.20-9.66L42.20-9.66L42.20-9.66Q42.90-13.42 42.97-15.05L42.97-15.05L42.97-15.05Q43.03-16.68 43.03-17.89L43.03-17.89L43.03-17.89Q43.03-19.10 42.68-19.89L42.68-19.89L42.68-19.89Q42.33-20.68 41.34-20.68L41.34-20.68L41.34-20.68Q40.35-20.68 39.69-20.06L39.69-20.06L39.69-20.06Q39.03-19.45 38.50-18.26ZM64.28-2.42L64.28-2.42L64.28-2.42Q62.92 0.88 58.56 0.88L58.56 0.88L58.56 0.88Q56.36 0.88 54.96-0.66L54.96-0.66L54.96-0.66Q53.81-1.94 53.81-3.39L53.81-3.39L53.81-3.39Q53.81-6.69 55.35-13.90L55.35-13.90L58.56-30.80L67.50-31.68L63.23-9.42L63.23-9.42Q62.48-6.16 62.48-5.02L62.48-5.02L62.48-5.02Q62.48-2.51 64.28-2.42ZM78.54-2.42L78.54-2.42L78.54-2.42Q77.18 0.88 72.82 0.88L72.82 0.88L72.82 0.88Q70.62 0.88 69.21-0.66L69.21-0.66L69.21-0.66Q68.07-1.94 68.07-3.39L68.07-3.39L68.07-3.39Q68.07-6.69 69.61-13.90L69.61-13.90L72.82-30.80L81.75-31.68L77.48-9.42L77.48-9.42Q76.74-6.16 76.74-5.02L76.74-5.02L76.74-5.02Q76.74-2.51 78.54-2.42ZM83.91-7.13L83.91-7.13L83.91-7.13Q82.50-8.14 82.50-10.08L82.50-10.08L82.50-10.08Q82.50-11.13 83.03-11.99L83.03-11.99L83.03-11.99Q83.56-12.85 84.61-12.98L84.61-12.98L93.28-12.98L93.28-12.98Q94.73-12.98 95.17-13.86L95.17-13.86L95.17-13.86Q95.88-13.46 96.18-12.63L96.18-12.63L96.18-12.63Q96.49-11.79 96.49-10.91L96.49-10.91L96.49-10.91Q96.49-10.03 95.81-9.17L95.81-9.17L95.81-9.17Q95.13-8.32 94.12-8.23L94.12-8.23L86.06-8.23L86.06-8.23Q85.14-8.23 84.70-7.94L84.70-7.94L84.70-7.94Q84.26-7.66 83.91-7.13ZM101.44-1.32L101.44-1.32L101.44-1.32Q100.41-2.46 99.95-4.27L99.95-4.27L99.95-4.27Q99.48-6.07 99.48-9.02L99.48-9.02L99.48-9.02Q99.48-11.97 100.50-14.65L100.50-14.65L100.50-14.65Q101.51-17.34 103.36-19.27L103.36-19.27L103.36-19.27Q107.14-23.32 113.39-23.32L113.39-23.32L113.39-23.32Q115.63-23.32 117.26-22.57L117.26-22.57L124.78-23.32L121.53-6.16L121.53-6.16Q121.40-5.63 121.40-4.66L121.40-4.66L121.40-4.66Q121.40-3.70 121.99-3.08L121.99-3.08L121.99-3.08Q122.58-2.46 123.46-2.38L123.46-2.38L123.46-2.38Q123.02-0.88 121.42 0L121.42 0L121.42 0Q119.81 0.88 118.01 0.88L118.01 0.88L118.01 0.88Q116.20 0.88 114.99 0.20L114.99 0.20L114.99 0.20Q113.78-0.48 113.43-1.63L113.43-1.63L113.43-1.63Q112.73-0.53 111.23 0.18L111.23 0.18L111.23 0.18Q109.74 0.88 107.73 0.88L107.73 0.88L107.73 0.88Q105.73 0.88 104.10 0.35L104.10 0.35L104.10 0.35Q102.48-0.18 101.44-1.32ZM110.73-19.18L110.73-19.18L110.73-19.18Q110.22-18.39 109.78-17.05L109.78-17.05L109.78-17.05Q109.34-15.71 108.61-12.12L108.61-12.12L108.61-12.12Q107.89-8.54 107.89-5.98L107.89-5.98L107.89-5.98Q107.89-3.43 108.28-2.68L108.28-2.68L108.28-2.68Q108.68-1.94 109.38-1.94L109.38-1.94L109.38-1.94Q110.79-1.94 111.83-3.28L111.83-3.28L111.83-3.28Q112.86-4.62 113.26-7.00L113.26-7.00L115.59-19.89L115.59-19.89Q114.66-20.68 113.59-20.68L113.59-20.68L113.59-20.68Q112.51-20.68 111.87-20.33L111.87-20.33L111.87-20.33Q111.23-19.98 110.73-19.18ZM128.44-7.13L128.44-7.13L128.44-7.13Q127.03-8.14 127.03-10.08L127.03-10.08L127.03-10.08Q127.03-11.13 127.56-11.99L127.56-11.99L127.56-11.99Q128.08-12.85 129.14-12.98L129.14-12.98L137.81-12.98L137.81-12.98Q139.26-12.98 139.70-13.86L139.70-13.86L139.70-13.86Q140.40-13.46 140.71-12.63L140.71-12.63L140.71-12.63Q141.02-11.79 141.02-10.91L141.02-10.91L141.02-10.91Q141.02-10.03 140.34-9.17L140.34-9.17L140.34-9.17Q139.66-8.32 138.64-8.23L138.64-8.23L130.59-8.23L130.59-8.23Q129.67-8.23 129.23-7.94L129.23-7.94L129.23-7.94Q128.79-7.66 128.44-7.13ZM154.57-2.42L154.57-2.42L154.57-2.42Q153.21 0.88 148.85 0.88L148.85 0.88L148.85 0.88Q146.65 0.88 145.24-0.66L145.24-0.66L145.24-0.66Q144.10-1.94 144.10-3.39L144.10-3.39L144.10-3.39Q144.10-6.69 145.64-13.90L145.64-13.90L148.85-30.80L157.78-31.68L153.52-9.42L153.52-9.42Q152.77-6.16 152.77-5.02L152.77-5.02L152.77-5.02Q152.77-2.51 154.57-2.42ZM167.90 0.88L167.90 0.88L167.90 0.88Q158.22 0.88 158.22-8.23L158.22-8.23L158.22-8.23Q158.22-14.70 161.79-18.88L161.79-18.88L161.79-18.88Q165.57-23.32 172.13-23.32L172.13-23.32L172.13-23.32Q176.88-23.32 179.30-21.12L179.30-21.12L179.30-21.12Q181.72-18.92 181.72-14.30L181.72-14.30L181.72-14.30Q181.72-7.26 177.94-3.17L177.94-3.17L177.94-3.17Q174.24 0.88 167.90 0.88ZM169.05-18.26L169.05-18.26L169.05-18.26Q168.52-17.07 168.10-15.29L168.10-15.29L168.10-15.29Q167.68-13.51 167.16-10.69L167.16-10.69L167.16-10.69Q166.63-7.88 166.63-4.40L166.63-4.40L166.63-4.40Q166.63-3.26 167.00-2.51L167.00-2.51L167.00-2.51Q167.38-1.76 168.39-1.76L168.39-1.76L168.39-1.76Q169.40-1.76 170.04-2.24L170.04-2.24L170.04-2.24Q170.68-2.73 171.16-3.87L171.16-3.87L171.16-3.87Q172.04-5.90 172.74-9.66L172.74-9.66L172.74-9.66Q173.45-13.42 173.51-15.05L173.51-15.05L173.51-15.05Q173.58-16.68 173.58-17.89L173.58-17.89L173.58-17.89Q173.58-19.10 173.23-19.89L173.23-19.89L173.23-19.89Q172.88-20.68 171.89-20.68L171.89-20.68L171.89-20.68Q170.90-20.68 170.24-20.06L170.24-20.06L170.24-20.06Q169.58-19.45 169.05-18.26ZM185.02-4.40L185.02-4.40L185.02-4.40Q185.02-5.59 185.64-8.58L185.64-8.58L187.97-20.46L185.37-20.46L185.55-21.78L185.55-21.78Q190.83-23.36 195.93-27.24L195.93-27.24L198.04-27.24L196.99-22.44L200.42-22.44L200.02-20.46L196.64-20.46L194.39-8.58L194.39-8.58Q193.82-5.85 193.82-4.93L193.82-4.93L193.82-4.93Q193.82-2.82 195.67-2.38L195.67-2.38L195.67-2.38Q195.23-0.88 193.64 0L193.64 0L193.64 0Q192.06 0.88 189.82 0.88L189.82 0.88L189.82 0.88Q187.57 0.88 186.30-0.53L186.30-0.53L186.30-0.53Q185.02-1.94 185.02-4.40Z" fill="url(#editing-outline-gradient)"></path></g></g><style>text {
  font-size: 64px;
  font-family: Arial Black;
  dominant-baseline: central;
  text-anchor: middle;
}</style></svg>