<?xml version="1.0" standalone="no"?>
<!DOCTYPE svg PUBLIC "-//W3C//DTD SVG 20010904//EN"
 "http://www.w3.org/TR/2001/REC-SVG-20010904/DTD/svg10.dtd">
<svg version="1.0" xmlns="http://www.w3.org/2000/svg"
 width="700.000000pt" height="700.000000pt" viewBox="0 0 700.000000 700.000000"
 preserveAspectRatio="xMidYMid meet">
<metadata>
Created by potrace 1.14, written by Peter Selinger 2001-2017
</metadata>
<g transform="translate(0.000000,700.000000) scale(0.100000,-0.100000)"
fill="#000000" stroke="none">
<path d="M2610 6984 c-192 -40 -364 -159 -470 -323 -93 -146 -149 -206 -255
-278 -59 -39 -173 -90 -223 -99 -14 -3 -29 -7 -33 -9 -3 -3 -46 -7 -95 -10
-159 -10 -182 -13 -264 -35 -50 -13 -186 -79 -221 -107 -116 -92 -205 -204
-252 -318 -22 -52 -30 -79 -44 -145 -2 -8 -5 -46 -8 -85 -13 -178 -17 -204
-47 -295 -51 -156 -154 -282 -324 -396 -184 -125 -274 -236 -337 -419 -28 -82
-31 -101 -31 -220 0 -154 17 -223 96 -378 124 -247 126 -474 4 -721 -88 -179
-107 -257 -101 -411 5 -135 19 -195 73 -300 64 -129 141 -213 276 -303 54 -36
123 -88 152 -115 90 -82 191 -253 210 -356 3 -14 7 -28 9 -32 3 -3 7 -42 10
-85 8 -111 14 -186 19 -209 19 -95 71 -214 132 -297 75 -101 201 -197 324
-245 77 -31 123 -41 210 -48 206 -16 234 -20 315 -51 167 -64 262 -145 387
-327 85 -124 160 -200 252 -256 129 -77 253 -110 403 -105 156 5 199 17 358
96 148 74 197 87 348 92 134 5 227 -17 385 -92 70 -33 154 -68 187 -78 86 -24
267 -24 365 0 194 49 370 185 472 366 41 72 167 197 243 241 59 35 173 81 227
93 30 7 94 13 204 20 82 6 105 10 194 39 268 87 473 348 495 629 3 40 8 105
11 143 6 87 50 220 100 305 51 88 171 207 264 260 47 27 106 75 157 127 70 70
90 98 132 185 62 129 81 218 76 358 -4 141 -22 197 -126 401 -33 66 -61 190
-64 287 -4 133 22 244 90 381 80 163 97 224 100 364 3 138 -13 215 -69 333
-66 138 -149 229 -305 330 -157 103 -271 245 -322 404 -30 95 -37 136 -40 245
-3 138 -48 282 -122 395 -46 69 -165 182 -237 224 -84 50 -218 93 -305 100
-240 19 -212 15 -319 50 -154 52 -282 154 -381 306 -34 52 -83 118 -109 147
-49 54 -156 139 -191 153 -11 4 -41 17 -65 28 -93 43 -160 56 -290 56 -144 1
-218 -17 -355 -86 -170 -85 -237 -102 -405 -101 -125 0 -214 25 -356 96 -49
25 -110 52 -136 61 -108 36 -263 44 -378 20z"/>
</g>
</svg>
